<svg xmlns="http://www.w3.org/2000/svg" viewBox="0 0 250 250"><path fill="none" stroke="#FFF" stroke-miterlimit="10" stroke-opacity=".1" d="M125.5-136.7l258.8 258.8M119.2-130.4L378 128.4M113-124.2l258.8 258.8M106.7-117.9l258.8 258.8M100.5-111.7l258.8 258.8M94.2-105.4L353 153.4M88-99.2l258.8 258.9M81.7-92.9l258.8 258.8M75.5-86.7l258.8 258.9M69.2-80.4L328 178.4M63-74.1l258.8 258.8M56.7-67.9l258.8 258.8M50.5-61.6l258.8 258.8M44.2-55.4L303 203.4M38-49.1l258.8 258.8M31.7-42.9l258.8 258.8M25.5-36.6l258.8 258.8M19.2-30.4L278 228.4M13-24.1l258.8 258.8M6.7-17.9l258.8 258.8M.5-11.6l258.8 258.8M-5.8-5.4L253 253.4M-12 .9l258.8 258.8M-18.3 7.1l258.8 258.8M-24.6 13.4l258.9 258.8M-30.8 19.6L228 278.4M-37.1 25.9l258.9 258.8M-43.3 32.1l258.8 258.8M-49.6 38.4l258.8 258.8M-55.8 44.6L203 303.4M-62.1 50.9l258.8 258.8M-68.3 57.1l258.8 258.8M-74.6 63.4l258.8 258.8M-80.8 69.6L178 328.5M-87.1 75.9l258.8 258.8M-93.3 82.1L165.5 341M-99.6 88.4l258.8 258.8M-105.8 94.7L153 353.5M-112.1 100.9l258.8 258.8M-118.3 107.2L140.5 366M-124.6 113.4l258.8 258.8M-130.8 119.7L128 378.5M119.2-130.4L378 128.4M113-124.2l258.8 258.8M106.7-117.9l258.8 258.8M100.5-111.7l258.8 258.8M94.2-105.4L353 153.4M88-99.2l258.8 258.9M81.7-92.9l258.8 258.8M75.5-86.7l258.8 258.9M69.2-80.4L328 178.4M63-74.1l258.8 258.8M56.7-67.9l258.8 258.8M50.5-61.6l258.8 258.8M44.2-55.4L303 203.4M38-49.1l258.8 258.8M31.7-42.9l258.8 258.8M25.5-36.6l258.8 258.8M19.2-30.4L278 228.4M13-24.1l258.8 258.8M6.7-17.9l258.8 258.8M.5-11.6l258.8 258.8M-5.8-5.4L253 253.4M-12 .9l258.8 258.8M-18.3 7.1l258.8 258.8M-24.6 13.4l258.9 258.8M-30.8 19.6L228 278.4M-37.1 25.9l258.9 258.8M-43.3 32.1l258.8 258.8M-49.6 38.4l258.8 258.8M-55.8 44.6L203 303.4M-62.1 50.9l258.8 258.8M-68.3 57.1l258.8 258.8M-74.6 63.4l258.8 258.8M-80.8 69.6L178 328.5M-87.1 75.9l258.8 258.8M-93.3 82.1L165.5 341M-99.6 88.4l258.8 258.8M-105.8 94.7L153 353.5M-112.1 100.9l258.8 258.8M-118.3 107.2L140.5 366M-124.6 113.4l258.8 258.8M-130.8 119.7L128 378.5M-137.1 125.9l258.8 258.8M129.1-139.3l258.8 258.8M122.8-133l258.8 258.8M116.6-126.8L375.4 132M110.3-120.5l258.8 258.8M104.1-114.3l258.8 258.8M97.8-108l258.8 258.8M91.6-101.8l258.8 258.9M85.3-95.5l258.8 258.8M79.1-89.3l258.8 258.9M72.8-83l258.8 258.8M66.6-76.7l258.8 258.8M60.3-70.5l258.8 258.8M54.1-64.2l258.8 258.8M47.8-58l258.8 258.8M41.6-51.7l258.8 258.8M35.3-45.5l258.8 258.8M29.1-39.2l258.8 258.8M22.8-33l258.8 258.8M16.6-26.7l258.8 258.8M10.3-20.5l258.8 258.8M4.1-14.2l258.8 258.8M-2.2-8l258.8 258.8M-8.4-1.7l258.8 258.8M-14.7 4.5l258.8 258.8M-21 10.8l258.9 258.8M-27.2 17l258.8 258.8M-33.5 23.3l258.9 258.8M-39.7 29.5l258.8 258.8M-46 35.8l258.8 258.8M-52.2 42l258.8 258.8M-58.5 48.3l258.8 258.8M-64.7 54.5l258.8 258.8M-71 60.8l258.8 258.8M-77.2 67l258.8 258.9M-83.5 73.3l258.8 258.8M-89.7 79.5l258.8 258.9M-96 85.8l258.8 258.8M-102.2 92.1l258.8 258.8M-108.5 98.3l258.8 258.8M-114.7 104.6l258.8 258.8M-121 110.8l258.8 258.8M-127.2 117.1l258.8 258.8M122.8-133l258.8 258.8M116.6-126.8L375.4 132M110.3-120.5l258.8 258.8M104.1-114.3l258.8 258.8M97.8-108l258.8 258.8M91.6-101.8l258.8 258.9M85.3-95.5l258.8 258.8M79.1-89.3l258.8 258.9M72.8-83l258.8 258.8M66.6-76.7l258.8 258.8M60.3-70.5l258.8 258.8M54.1-64.2l258.8 258.8M47.8-58l258.8 258.8M41.6-51.7l258.8 258.8M35.3-45.5l258.8 258.8M29.1-39.2l258.8 258.8M22.8-33l258.8 258.8M16.6-26.7l258.8 258.8M10.3-20.5l258.8 258.8M4.1-14.2l258.8 258.8M-2.2-8l258.8 258.8M-8.4-1.7l258.8 258.8M-14.7 4.5l258.8 258.8M-21 10.8l258.9 258.8M-27.2 17l258.8 258.8M-33.5 23.3l258.9 258.8M-39.7 29.5l258.8 258.8M-46 35.8l258.8 258.8M-52.2 42l258.8 258.8M-58.5 48.3l258.8 258.8M-64.7 54.5l258.8 258.8M-71 60.8l258.8 258.8M-77.2 67l258.8 258.9M-83.5 73.3l258.8 258.8M-89.7 79.5l258.8 258.9M-96 85.8l258.8 258.8M-102.2 92.1l258.8 258.8M-108.5 98.3l258.8 258.8M-114.7 104.6l258.8 258.8M-121 110.8l258.8 258.8M-127.2 117.1l258.8 258.8M-133.5 123.3l258.8 258.8"/></svg>